# xmcd CD database file
#
# Track frame offsets:
#	150
#	16250
#	36950
#	57675
#	86075
#	107250
#	129725
#	146300
#	167400
#	186000
#	202650
#	243650
#
# Disc length: 3514 seconds
#
# Revision: 1
# Processed by: cddbd v1.5.2PL0 Copyright (c) Steve Scherf et al.
# Submitted via: CDex 1.51
#
DISCID=9a0db80c
DTITLE=Philadelphia Jerry Ricks - True Blues
DYEAR=1991
DGENRE=Blues
TTITLE0=Got The Blues And Can´t Be Satisfied
TTITLE1=Shakes Blues
TTITLE2=See That My Grave Is Kept Clean
TTITLE3=Homeless Blues
TTITLE4=Ain´t No Telling (Blue Harvest)
TTITLE5=Casey Jones
TTITLE6=Goin Home
TTITLE7=Break of Dawn
TTITLE8=Let Me Be
TTITLE9=Take Me To The River
TTITLE10=No Crazy Woman
TTITLE11=James Alley Blues
EXTD=YEAR: 1991
EXTT0=
EXTT1=
EXTT2=
EXTT3=
EXTT4=
EXTT5=
EXTT6=
EXTT7=
EXTT8=
EXTT9=
EXTT10=
EXTT11=
PLAYORDER=
